<mxfile host="app.diagrams.net" agent="Mozilla/5.0 (Windows NT 10.0; Win64; x64) AppleWebKit/537.36 (KHTML, like Gecko) Chrome/134.0.0.0 Safari/537.36" version="26.2.3">
  <diagram name="Página-1" id="rH2_RRaVCcZ2X59HV3Wv">
    <mxGraphModel dx="1680" dy="924" grid="1" gridSize="10" guides="1" tooltips="1" connect="1" arrows="1" fold="1" page="1" pageScale="1" pageWidth="827" pageHeight="1169" math="0" shadow="0">
      <root>
        <mxCell id="0" />
        <mxCell id="1" parent="0" />
        <mxCell id="qxOkvFk1oytMXzj9xUn2-1" value="&lt;font style=&quot;font-size: 20px;&quot;&gt;servidor web apache&lt;/font&gt;" style="verticalAlign=top;align=center;spacingTop=8;spacingLeft=2;spacingRight=12;shape=cube;size=10;direction=south;fontStyle=4;html=1;whiteSpace=wrap;" vertex="1" parent="1">
          <mxGeometry x="130" width="380" height="400" as="geometry" />
        </mxCell>
        <mxCell id="qxOkvFk1oytMXzj9xUn2-2" value="&lt;font style=&quot;font-size: 20px;&quot;&gt;&lt;font style=&quot;color: light-dark(rgb(247, 8, 8), rgb(237, 237, 237));&quot;&gt;«artifact»&lt;/font&gt;&lt;/font&gt;&lt;div&gt;&lt;font style=&quot;font-size: 20px;&quot;&gt;&lt;span style=&quot;background-color: transparent; color: light-dark(rgb(0, 0, 0), rgb(255, 255, 255));&quot;&gt;Aplicacion web SIST CONTROL&lt;/span&gt;&lt;/font&gt;&lt;div&gt;&lt;div&gt;&lt;font style=&quot;font-size: 20px;&quot;&gt;&lt;b&gt;&lt;br&gt;&lt;/b&gt;&lt;/font&gt;&lt;/div&gt;&lt;div&gt;&lt;br&gt;&lt;/div&gt;&lt;/div&gt;&lt;/div&gt;" style="html=1;whiteSpace=wrap;" vertex="1" parent="1">
          <mxGeometry x="150" y="60" width="320" height="120" as="geometry" />
        </mxCell>
        <mxCell id="qxOkvFk1oytMXzj9xUn2-3" value="&lt;font style=&quot;font-size: 20px;&quot;&gt;Cliente (navegador)&amp;nbsp;&lt;/font&gt;" style="verticalAlign=top;align=center;spacingTop=8;spacingLeft=2;spacingRight=12;shape=cube;size=10;direction=south;fontStyle=4;html=1;whiteSpace=wrap;" vertex="1" parent="1">
          <mxGeometry x="115" y="560" width="410" height="266" as="geometry" />
        </mxCell>
        <mxCell id="qxOkvFk1oytMXzj9xUn2-4" value="&lt;font style=&quot;font-size: 20px;&quot;&gt;&lt;font style=&quot;color: light-dark(rgb(248, 13, 13), rgb(237, 237, 237));&quot;&gt;«artifact»&lt;/font&gt; interfaz web&lt;/font&gt;&lt;div&gt;&lt;font style=&quot;font-size: 20px;&quot;&gt;- html,css,Javascript&lt;br&gt;&lt;/font&gt;&lt;div&gt;&lt;br&gt;&lt;/div&gt;&lt;/div&gt;" style="html=1;whiteSpace=wrap;" vertex="1" parent="1">
          <mxGeometry x="130" y="620" width="360" height="160" as="geometry" />
        </mxCell>
        <mxCell id="qxOkvFk1oytMXzj9xUn2-5" value="&lt;font style=&quot;font-size: 20px;&quot;&gt;servidores de correos web apache&lt;/font&gt;" style="verticalAlign=top;align=center;spacingTop=8;spacingLeft=2;spacingRight=12;shape=cube;size=10;direction=south;fontStyle=4;html=1;whiteSpace=wrap;" vertex="1" parent="1">
          <mxGeometry x="800" y="20" width="400" height="330" as="geometry" />
        </mxCell>
        <mxCell id="qxOkvFk1oytMXzj9xUn2-6" value="&lt;font style=&quot;font-size: 20px;&quot;&gt;&lt;span style=&quot;color: rgb(248, 13, 13);&quot;&gt;«artifact»&lt;/span&gt;&lt;br&gt;SMTP&lt;/font&gt;&lt;div&gt;&lt;font style=&quot;font-size: 20px;&quot;&gt;(Simple Mail Transfer Protocol)&lt;/font&gt;&lt;/div&gt;" style="html=1;whiteSpace=wrap;" vertex="1" parent="1">
          <mxGeometry x="820" y="80" width="360" height="125" as="geometry" />
        </mxCell>
        <mxCell id="qxOkvFk1oytMXzj9xUn2-7" value="&lt;font style=&quot;font-size: 20px;&quot;&gt;Servidor de base de datos web apache&lt;/font&gt;" style="verticalAlign=top;align=center;spacingTop=8;spacingLeft=2;spacingRight=12;shape=cube;size=10;direction=south;fontStyle=4;html=1;whiteSpace=wrap;" vertex="1" parent="1">
          <mxGeometry x="797.5" y="424" width="405" height="456" as="geometry" />
        </mxCell>
        <mxCell id="qxOkvFk1oytMXzj9xUn2-8" value="&lt;font style=&quot;font-size: 20px;&quot;&gt;&lt;span style=&quot;color: rgb(248, 13, 13);&quot;&gt;«artifact»&amp;nbsp;&lt;/span&gt;&lt;/font&gt;&lt;div&gt;&lt;span style=&quot;font-size: 20px; background-color: transparent; color: light-dark(rgb(0, 0, 0), rgb(255, 255, 255));&quot;&gt;-base de datos(sistema de gestion)&amp;nbsp;&lt;/span&gt;&lt;/div&gt;" style="html=1;whiteSpace=wrap;" vertex="1" parent="1">
          <mxGeometry x="845" y="480" width="310" height="140" as="geometry" />
        </mxCell>
        <mxCell id="qxOkvFk1oytMXzj9xUn2-9" value="&lt;font style=&quot;font-size: 18px;&quot;&gt;HTTP&lt;/font&gt;" style="html=1;verticalAlign=bottom;endArrow=block;curved=0;rounded=0;strokeWidth=4;exitX=0;exitY=0;exitDx=0;exitDy=200;exitPerimeter=0;" edge="1" parent="1" source="qxOkvFk1oytMXzj9xUn2-3">
          <mxGeometry x="0.0007" width="80" relative="1" as="geometry">
            <mxPoint x="420" y="420" as="sourcePoint" />
            <mxPoint x="320" y="410" as="targetPoint" />
            <mxPoint as="offset" />
          </mxGeometry>
        </mxCell>
        <mxCell id="qxOkvFk1oytMXzj9xUn2-10" value="&lt;span style=&quot;font-size: 18px;&quot;&gt;SQL&lt;/span&gt;" style="html=1;verticalAlign=bottom;endArrow=block;curved=0;rounded=0;entryX=0.489;entryY=0.995;entryDx=0;entryDy=0;entryPerimeter=0;strokeWidth=4;exitX=0;exitY=0;exitDx=250;exitDy=0;exitPerimeter=0;" edge="1" parent="1" source="qxOkvFk1oytMXzj9xUn2-1" target="qxOkvFk1oytMXzj9xUn2-7">
          <mxGeometry width="80" relative="1" as="geometry">
            <mxPoint x="323.9600000000001" y="690.81" as="sourcePoint" />
            <mxPoint x="311.05" y="910" as="targetPoint" />
          </mxGeometry>
        </mxCell>
        <mxCell id="qxOkvFk1oytMXzj9xUn2-11" value="&lt;font style=&quot;font-size: 18px;&quot;&gt;SMTP&lt;/font&gt;" style="html=1;verticalAlign=bottom;endArrow=block;curved=0;rounded=0;entryX=0.457;entryY=1.005;entryDx=0;entryDy=0;entryPerimeter=0;strokeWidth=4;exitX=0.577;exitY=0;exitDx=0;exitDy=0;exitPerimeter=0;" edge="1" parent="1" source="qxOkvFk1oytMXzj9xUn2-1" target="qxOkvFk1oytMXzj9xUn2-5">
          <mxGeometry x="0.398" y="1" width="80" relative="1" as="geometry">
            <mxPoint x="600" y="310" as="sourcePoint" />
            <mxPoint x="835" y="315" as="targetPoint" />
            <mxPoint as="offset" />
          </mxGeometry>
        </mxCell>
        <mxCell id="qxOkvFk1oytMXzj9xUn2-12" value="&lt;font style=&quot;font-size: 20px;&quot;&gt;compoentes :&lt;/font&gt;&lt;div&gt;&lt;font style=&quot;font-size: 20px;&quot;&gt;&lt;br&gt;&lt;/font&gt;&lt;/div&gt;&lt;div&gt;&lt;font style=&quot;font-size: 20px;&quot;&gt;- larabel (framework)&lt;/font&gt;&lt;/div&gt;&lt;div&gt;&lt;font style=&quot;font-size: 20px;&quot;&gt;-modelo (gestion BD)&lt;/font&gt;&lt;/div&gt;&lt;div&gt;&lt;span style=&quot;background-color: transparent; color: light-dark(rgb(0, 0, 0), rgb(255, 255, 255));&quot;&gt;&lt;font style=&quot;font-size: 20px;&quot;&gt;-controlador&lt;/font&gt;&lt;/span&gt;&lt;/div&gt;&lt;div&gt;&lt;font style=&quot;font-size: 20px;&quot;&gt;-vista (frontend)&lt;/font&gt;&lt;/div&gt;" style="shape=module;align=left;spacingLeft=20;align=center;verticalAlign=top;whiteSpace=wrap;html=1;" vertex="1" parent="1">
          <mxGeometry x="150" y="210" width="320" height="160" as="geometry" />
        </mxCell>
        <mxCell id="qxOkvFk1oytMXzj9xUn2-13" value="&lt;font style=&quot;font-size: 20px;&quot;&gt;componentes:&lt;/font&gt;&lt;div&gt;&lt;font style=&quot;font-size: 20px;&quot;&gt;-mySQL/postgreSQL&lt;/font&gt;&lt;/div&gt;&lt;div&gt;&lt;font style=&quot;font-size: 20px;&quot;&gt;-tabla de estudiante&lt;/font&gt;&lt;/div&gt;&lt;div&gt;&lt;font style=&quot;font-size: 20px;&quot;&gt;- tabla de profesor&lt;/font&gt;&lt;/div&gt;&lt;div&gt;&lt;font style=&quot;font-size: 20px;&quot;&gt;-tabla de asistencia&amp;nbsp;&lt;/font&gt;&lt;/div&gt;&lt;div&gt;&lt;font style=&quot;font-size: 20px;&quot;&gt;-tabla de curso&amp;nbsp;&lt;/font&gt;&lt;/div&gt;" style="shape=module;align=left;spacingLeft=20;align=center;verticalAlign=top;whiteSpace=wrap;html=1;" vertex="1" parent="1">
          <mxGeometry x="840" y="646" width="315" height="180" as="geometry" />
        </mxCell>
        <mxCell id="qxOkvFk1oytMXzj9xUn2-14" value="&lt;font style=&quot;font-size: 20px;&quot;&gt;componentes :&lt;/font&gt;&lt;div&gt;&lt;font style=&quot;font-size: 20px;&quot;&gt;-smtp&lt;/font&gt;&lt;/div&gt;&lt;div&gt;&lt;font style=&quot;font-size: 20px;&quot;&gt;-notificaciones automaticas&lt;/font&gt;&lt;/div&gt;" style="shape=module;align=left;spacingLeft=20;align=center;verticalAlign=top;whiteSpace=wrap;html=1;" vertex="1" parent="1">
          <mxGeometry x="820" y="230" width="350" height="100" as="geometry" />
        </mxCell>
      </root>
    </mxGraphModel>
  </diagram>
</mxfile>
